<?xml version="1.0" ?><!DOCTYPE svg  PUBLIC '-//W3C//DTD SVG 1.1//EN'  'http://www.w3.org/Graphics/SVG/1.1/DTD/svg11.dtd'><svg aria-labelledby="simpleicons-opera-icon" enable-background="new 0 0 24 24" height="3.33333in" role="img" style="shape-rendering:geometricPrecision; text-rendering:geometricPrecision; image-rendering:optimizeQuality; fill-rule:evenodd; clip-rule:evenodd" version="1.1" viewBox="0 0 3333 3333" width="3.33333in" xml:space="preserve" xmlns="http://www.w3.org/2000/svg" xmlns:xlink="http://www.w3.org/1999/xlink"><defs><style type="text/css">
   <![CDATA[
    .fil0 {fill:black}
    .fil1 {fill:white}
   ]]>
  </style></defs><g id="Layer_x0020_1"><circle class="fil0" cx="1667" cy="1667" r="1667"/><g id="_606956160"><path class="fil1" d="M1380 1175c-97,114 -159,283 -163,471l0 41c4,189 66,357 163,471 125,162 311,265 518,265 128,0 247,-39 350,-107 -154,139 -358,222 -581,222 -14,0 -28,0 -42,-1 -462,-21 -830,-403 -830,-870 0,-482 390,-872 872,-872l3 0c222,1 424,85 578,222 -103,-68 -222,-107 -350,-107 -207,0 -393,103 -518,265l0 0zm1158 492c0,258 -112,490 -290,649 -224,109 -432,33 -501,-14 219,-49 385,-314 385,-635 0,-322 -166,-587 -385,-635 69,-48 277,-124 501,-15 178,159 290,391 290,650z"/></g></g></svg>